<?xml version="1.0" encoding="utf-8" standalone="no"?>
<!DOCTYPE svg PUBLIC "-//W3C//DTD SVG 1.1//EN"
  "http://www.w3.org/Graphics/SVG/1.1/DTD/svg11.dtd">
<svg xmlns:xlink="http://www.w3.org/1999/xlink" width="444.126719pt" height="247.096391pt" viewBox="0 0 444.126719 247.096391" xmlns="http://www.w3.org/2000/svg" version="1.1">
 <metadata>
  <rdf:RDF xmlns:dc="http://purl.org/dc/elements/1.1/" xmlns:cc="http://creativecommons.org/ns#" xmlns:rdf="http://www.w3.org/1999/02/22-rdf-syntax-ns#">
   <cc:Work>
    <dc:type rdf:resource="http://purl.org/dc/dcmitype/StillImage"/>
    <dc:format>image/svg+xml</dc:format>
    <dc:creator>
     <cc:Agent>
      <dc:title>Matplotlib v3.11.1, https://matplotlib.org/</dc:title>
     </cc:Agent>
    </dc:creator>
   </cc:Work>
  </rdf:RDF>
 </metadata>
 <defs>
  <style type="text/css">*{stroke-linejoin: round; stroke-linecap: butt}</style>
 </defs>
 <g id="figure_1">
  <g id="patch_1">
   <path d="M 0 247.096391 
L 444.126719 247.096391 
L 444.126719 0 
L 0 0 
z
" style="fill: #fcfcfb"/>
  </g>
  <g id="axes_1">
   <g id="patch_2">
    <path d="M 48.352109 210.894281 
L 405.472109 210.894281 
L 405.472109 11.310281 
L 48.352109 11.310281 
z
" style="fill: #fcfcfb"/>
   </g>
   <g id="matplotlib.axis_1">
    <g id="xtick_1">
     <g id="line2d_1">
      <path d="M 48.352109 210.894281 
L 48.352109 11.310281 
" clip-path="url(#p9ca663f37f)" style="fill: none; stroke: #e4e3df; stroke-width: 0.6; stroke-linecap: square"/>
     </g>
     <g id="line2d_2">
      <defs>
       <path id="m41ecc942f6" d="M 0 0 
L 0 3.5 
" style="stroke: #52514e; stroke-width: 0.8"/>
      </defs>
      <g>
       <use xlink:href="#m41ecc942f6" x="48.352109" y="210.894281" style="fill: #52514e; stroke: #52514e; stroke-width: 0.8"/>
      </g>
     </g>
     <g id="text_1">
      <!-- 0.0 -->
      <g style="fill: #0b0b0b" transform="translate(41.195703 224.732172) scale(0.09 -0.09)">
       <defs>
        <path id="DejaVuSans-13" d="M 2034 4250 
Q 1547 4250 1301 3770 
Q 1056 3291 1056 2328 
Q 1056 1369 1301 889 
Q 1547 409 2034 409 
Q 2525 409 2770 889 
Q 3016 1369 3016 2328 
Q 3016 3291 2770 3770 
Q 2525 4250 2034 4250 
z
M 2034 4750 
Q 2819 4750 3233 4129 
Q 3647 3509 3647 2328 
Q 3647 1150 3233 529 
Q 2819 -91 2034 -91 
Q 1250 -91 836 529 
Q 422 1150 422 2328 
Q 422 3509 836 4129 
Q 1250 4750 2034 4750 
z
" transform="scale(0.015625)"/>
        <path id="DejaVuSans-11" d="M 684 794 
L 1344 794 
L 1344 0 
L 684 0 
L 684 794 
z
" transform="scale(0.015625)"/>
       </defs>
       <use xlink:href="#DejaVuSans-13"/>
       <use xlink:href="#DejaVuSans-11" transform="translate(63.625 0)"/>
       <use xlink:href="#DejaVuSans-13" transform="translate(95.40625 0)"/>
      </g>
     </g>
    </g>
    <g id="xtick_2">
     <g id="line2d_3">
      <path d="M 107.872109 210.894281 
L 107.872109 11.310281 
" clip-path="url(#p9ca663f37f)" style="fill: none; stroke: #e4e3df; stroke-width: 0.6; stroke-linecap: square"/>
     </g>
     <g id="line2d_4">
      <g>
       <use xlink:href="#m41ecc942f6" x="107.872109" y="210.894281" style="fill: #52514e; stroke: #52514e; stroke-width: 0.8"/>
      </g>
     </g>
     <g id="text_2">
      <!-- 0.2 -->
      <g style="fill: #0b0b0b" transform="translate(100.715703 224.732172) scale(0.09 -0.09)">
       <defs>
        <path id="DejaVuSans-15" d="M 1228 531 
L 3431 531 
L 3431 0 
L 469 0 
L 469 531 
Q 828 903 1448 1529 
Q 2069 2156 2228 2338 
Q 2531 2678 2651 2914 
Q 2772 3150 2772 3378 
Q 2772 3750 2511 3984 
Q 2250 4219 1831 4219 
Q 1534 4219 1204 4116 
Q 875 4013 500 3803 
L 500 4441 
Q 881 4594 1212 4672 
Q 1544 4750 1819 4750 
Q 2544 4750 2975 4387 
Q 3406 4025 3406 3419 
Q 3406 3131 3298 2873 
Q 3191 2616 2906 2266 
Q 2828 2175 2409 1742 
Q 1991 1309 1228 531 
z
" transform="scale(0.015625)"/>
       </defs>
       <use xlink:href="#DejaVuSans-13"/>
       <use xlink:href="#DejaVuSans-11" transform="translate(63.625 0)"/>
       <use xlink:href="#DejaVuSans-15" transform="translate(95.40625 0)"/>
      </g>
     </g>
    </g>
    <g id="xtick_3">
     <g id="line2d_5">
      <path d="M 167.392109 210.894281 
L 167.392109 11.310281 
" clip-path="url(#p9ca663f37f)" style="fill: none; stroke: #e4e3df; stroke-width: 0.6; stroke-linecap: square"/>
     </g>
     <g id="line2d_6">
      <g>
       <use xlink:href="#m41ecc942f6" x="167.392109" y="210.894281" style="fill: #52514e; stroke: #52514e; stroke-width: 0.8"/>
      </g>
     </g>
     <g id="text_3">
      <!-- 0.4 -->
      <g style="fill: #0b0b0b" transform="translate(160.235703 224.732172) scale(0.09 -0.09)">
       <defs>
        <path id="DejaVuSans-17" d="M 2419 4116 
L 825 1625 
L 2419 1625 
L 2419 4116 
z
M 2253 4666 
L 3047 4666 
L 3047 1625 
L 3713 1625 
L 3713 1100 
L 3047 1100 
L 3047 0 
L 2419 0 
L 2419 1100 
L 313 1100 
L 313 1709 
L 2253 4666 
z
" transform="scale(0.015625)"/>
       </defs>
       <use xlink:href="#DejaVuSans-13"/>
       <use xlink:href="#DejaVuSans-11" transform="translate(63.625 0)"/>
       <use xlink:href="#DejaVuSans-17" transform="translate(95.40625 0)"/>
      </g>
     </g>
    </g>
    <g id="xtick_4">
     <g id="line2d_7">
      <path d="M 226.912109 210.894281 
L 226.912109 11.310281 
" clip-path="url(#p9ca663f37f)" style="fill: none; stroke: #e4e3df; stroke-width: 0.6; stroke-linecap: square"/>
     </g>
     <g id="line2d_8">
      <g>
       <use xlink:href="#m41ecc942f6" x="226.912109" y="210.894281" style="fill: #52514e; stroke: #52514e; stroke-width: 0.8"/>
      </g>
     </g>
     <g id="text_4">
      <!-- 0.6 -->
      <g style="fill: #0b0b0b" transform="translate(219.755703 224.732172) scale(0.09 -0.09)">
       <defs>
        <path id="DejaVuSans-19" d="M 2113 2584 
Q 1688 2584 1439 2293 
Q 1191 2003 1191 1497 
Q 1191 994 1439 701 
Q 1688 409 2113 409 
Q 2538 409 2786 701 
Q 3034 994 3034 1497 
Q 3034 2003 2786 2293 
Q 2538 2584 2113 2584 
z
M 3366 4563 
L 3366 3988 
Q 3128 4100 2886 4159 
Q 2644 4219 2406 4219 
Q 1781 4219 1451 3797 
Q 1122 3375 1075 2522 
Q 1259 2794 1537 2939 
Q 1816 3084 2150 3084 
Q 2853 3084 3261 2657 
Q 3669 2231 3669 1497 
Q 3669 778 3244 343 
Q 2819 -91 2113 -91 
Q 1303 -91 875 529 
Q 447 1150 447 2328 
Q 447 3434 972 4092 
Q 1497 4750 2381 4750 
Q 2619 4750 2861 4703 
Q 3103 4656 3366 4563 
z
" transform="scale(0.015625)"/>
       </defs>
       <use xlink:href="#DejaVuSans-13"/>
       <use xlink:href="#DejaVuSans-11" transform="translate(63.625 0)"/>
       <use xlink:href="#DejaVuSans-19" transform="translate(95.40625 0)"/>
      </g>
     </g>
    </g>
    <g id="xtick_5">
     <g id="line2d_9">
      <path d="M 286.432109 210.894281 
L 286.432109 11.310281 
" clip-path="url(#p9ca663f37f)" style="fill: none; stroke: #e4e3df; stroke-width: 0.6; stroke-linecap: square"/>
     </g>
     <g id="line2d_10">
      <g>
       <use xlink:href="#m41ecc942f6" x="286.432109" y="210.894281" style="fill: #52514e; stroke: #52514e; stroke-width: 0.8"/>
      </g>
     </g>
     <g id="text_5">
      <!-- 0.8 -->
      <g style="fill: #0b0b0b" transform="translate(279.275703 224.732172) scale(0.09 -0.09)">
       <defs>
        <path id="DejaVuSans-1b" d="M 2034 2216 
Q 1584 2216 1326 1975 
Q 1069 1734 1069 1313 
Q 1069 891 1326 650 
Q 1584 409 2034 409 
Q 2484 409 2743 651 
Q 3003 894 3003 1313 
Q 3003 1734 2745 1975 
Q 2488 2216 2034 2216 
z
M 1403 2484 
Q 997 2584 770 2862 
Q 544 3141 544 3541 
Q 544 4100 942 4425 
Q 1341 4750 2034 4750 
Q 2731 4750 3128 4425 
Q 3525 4100 3525 3541 
Q 3525 3141 3298 2862 
Q 3072 2584 2669 2484 
Q 3125 2378 3379 2068 
Q 3634 1759 3634 1313 
Q 3634 634 3220 271 
Q 2806 -91 2034 -91 
Q 1263 -91 848 271 
Q 434 634 434 1313 
Q 434 1759 690 2068 
Q 947 2378 1403 2484 
z
M 1172 3481 
Q 1172 3119 1398 2916 
Q 1625 2713 2034 2713 
Q 2441 2713 2670 2916 
Q 2900 3119 2900 3481 
Q 2900 3844 2670 4047 
Q 2441 4250 2034 4250 
Q 1625 4250 1398 4047 
Q 1172 3844 1172 3481 
z
" transform="scale(0.015625)"/>
       </defs>
       <use xlink:href="#DejaVuSans-13"/>
       <use xlink:href="#DejaVuSans-11" transform="translate(63.625 0)"/>
       <use xlink:href="#DejaVuSans-1b" transform="translate(95.40625 0)"/>
      </g>
     </g>
    </g>
    <g id="xtick_6">
     <g id="line2d_11">
      <path d="M 345.952109 210.894281 
L 345.952109 11.310281 
" clip-path="url(#p9ca663f37f)" style="fill: none; stroke: #e4e3df; stroke-width: 0.6; stroke-linecap: square"/>
     </g>
     <g id="line2d_12">
      <g>
       <use xlink:href="#m41ecc942f6" x="345.952109" y="210.894281" style="fill: #52514e; stroke: #52514e; stroke-width: 0.8"/>
      </g>
     </g>
     <g id="text_6">
      <!-- 1.0 -->
      <g style="fill: #0b0b0b" transform="translate(338.795703 224.732172) scale(0.09 -0.09)">
       <defs>
        <path id="DejaVuSans-14" d="M 794 531 
L 1825 531 
L 1825 4091 
L 703 3866 
L 703 4441 
L 1819 4666 
L 2450 4666 
L 2450 531 
L 3481 531 
L 3481 0 
L 794 0 
L 794 531 
z
" transform="scale(0.015625)"/>
       </defs>
       <use xlink:href="#DejaVuSans-14"/>
       <use xlink:href="#DejaVuSans-11" transform="translate(63.625 0)"/>
       <use xlink:href="#DejaVuSans-13" transform="translate(95.40625 0)"/>
      </g>
     </g>
    </g>
    <g id="xtick_7">
     <g id="line2d_13">
      <path d="M 405.472109 210.894281 
L 405.472109 11.310281 
" clip-path="url(#p9ca663f37f)" style="fill: none; stroke: #e4e3df; stroke-width: 0.6; stroke-linecap: square"/>
     </g>
     <g id="line2d_14">
      <g>
       <use xlink:href="#m41ecc942f6" x="405.472109" y="210.894281" style="fill: #52514e; stroke: #52514e; stroke-width: 0.8"/>
      </g>
     </g>
     <g id="text_7">
      <!-- 1.2 -->
      <g style="fill: #0b0b0b" transform="translate(398.315703 224.732172) scale(0.09 -0.09)">
       <use xlink:href="#DejaVuSans-14"/>
       <use xlink:href="#DejaVuSans-11" transform="translate(63.625 0)"/>
       <use xlink:href="#DejaVuSans-15" transform="translate(95.40625 0)"/>
      </g>
     </g>
    </g>
    <g id="text_8">
     <!-- $V_{GB}$ (V) -->
     <g style="fill: #0b0b0b" transform="translate(211.072109 237.734281) scale(0.09 -0.09)">
      <defs>
       <path id="DejaVuSans-Oblique-39" d="M 1319 0 
L 500 4666 
L 1119 4666 
L 1797 653 
L 4063 4666 
L 4750 4666 
L 2053 0 
L 1319 0 
z
" transform="scale(0.015625)"/>
       <path id="DejaVuSans-Oblique-2a" d="M 3494 697 
L 3738 1919 
L 2700 1919 
L 2797 2438 
L 4453 2438 
L 4050 384 
Q 3634 156 3143 32 
Q 2653 -91 2156 -91 
Q 1278 -91 783 396 
Q 288 884 288 1753 
Q 288 2475 589 3126 
Q 891 3778 1422 4213 
Q 1756 4484 2153 4617 
Q 2550 4750 3034 4750 
Q 3472 4750 3873 4639 
Q 4275 4528 4641 4306 
L 4513 3634 
Q 4231 3928 3853 4083 
Q 3475 4238 3047 4238 
Q 2550 4238 2172 4048 
Q 1794 3859 1497 3463 
Q 1244 3125 1098 2667 
Q 953 2209 953 1734 
Q 953 1081 1287 751 
Q 1622 422 2284 422 
Q 2616 422 2925 492 
Q 3234 563 3494 697 
z
" transform="scale(0.015625)"/>
       <path id="DejaVuSans-Oblique-25" d="M 1081 4666 
L 2694 4666 
Q 3350 4666 3675 4422 
Q 4000 4178 4000 3688 
Q 4000 3238 3720 2911 
Q 3441 2584 2988 2516 
Q 3375 2428 3569 2181 
Q 3763 1934 3763 1522 
Q 3763 819 3242 409 
Q 2722 0 1819 0 
L 172 0 
L 1081 4666 
z
M 1234 2228 
L 903 519 
L 1919 519 
Q 2491 519 2800 781 
Q 3109 1044 3109 1522 
Q 3109 1891 2904 2059 
Q 2700 2228 2247 2228 
L 1234 2228 
z
M 1606 4147 
L 1331 2741 
L 2272 2741 
Q 2775 2741 3058 2959 
Q 3341 3178 3341 3566 
Q 3341 3869 3150 4008 
Q 2959 4147 2541 4147 
L 1606 4147 
z
" transform="scale(0.015625)"/>
       <path id="DejaVuSans-3" transform="scale(0.015625)"/>
       <path id="DejaVuSans-b" d="M 1984 4856 
Q 1566 4138 1362 3434 
Q 1159 2731 1159 2009 
Q 1159 1288 1364 580 
Q 1569 -128 1984 -844 
L 1484 -844 
Q 1016 -109 783 600 
Q 550 1309 550 2009 
Q 550 2706 781 3412 
Q 1013 4119 1484 4856 
L 1984 4856 
z
" transform="scale(0.015625)"/>
       <path id="DejaVuSans-39" d="M 1831 0 
L 50 4666 
L 709 4666 
L 2188 738 
L 3669 4666 
L 4325 4666 
L 2547 0 
L 1831 0 
z
" transform="scale(0.015625)"/>
       <path id="DejaVuSans-c" d="M 513 4856 
L 1013 4856 
Q 1481 4119 1714 3412 
Q 1947 2706 1947 2009 
Q 1947 1309 1714 600 
Q 1481 -109 1013 -844 
L 513 -844 
Q 928 -128 1133 580 
Q 1338 1288 1338 2009 
Q 1338 2731 1133 3434 
Q 928 4138 513 4856 
z
" transform="scale(0.015625)"/>
      </defs>
      <use xlink:href="#DejaVuSans-Oblique-39" transform="translate(0 0.125)"/>
      <use xlink:href="#DejaVuSans-Oblique-2a" transform="translate(68.408203 -14.874951) scale(0.7)"/>
      <use xlink:href="#DejaVuSans-Oblique-25" transform="translate(122.651367 -14.874951) scale(0.7)"/>
      <use xlink:href="#DejaVuSans-3" transform="translate(173.408203 0.125)"/>
      <use xlink:href="#DejaVuSans-b" transform="translate(205.195312 0.125)"/>
      <use xlink:href="#DejaVuSans-39" transform="translate(244.208984 0.125)"/>
      <use xlink:href="#DejaVuSans-c" transform="translate(312.617188 0.125)"/>
     </g>
    </g>
   </g>
   <g id="matplotlib.axis_2">
    <g id="ytick_1">
     <g id="line2d_15">
      <path d="M 48.352109 207.223443 
L 405.472109 207.223443 
" clip-path="url(#p9ca663f37f)" style="fill: none; stroke: #e4e3df; stroke-width: 0.6; stroke-linecap: square"/>
     </g>
     <g id="line2d_16">
      <defs>
       <path id="mae84c835b6" d="M 0 0 
L -3.5 0 
" style="stroke: #52514e; stroke-width: 0.8"/>
      </defs>
      <g>
       <use xlink:href="#mae84c835b6" x="48.352109" y="207.223443" style="fill: #52514e; stroke: #52514e; stroke-width: 0.8"/>
      </g>
     </g>
     <g id="text_9">
      <!-- $\mathdefault{10^{-9}}$ -->
      <g style="fill: #0b0b0b" transform="translate(20.202109 211.453443) scale(0.09 -0.09)">
       <defs>
        <path id="DejaVuSans-c9c" d="M 678 2272 
L 4684 2272 
L 4684 1741 
L 678 1741 
L 678 2272 
z
" transform="scale(0.015625)"/>
        <path id="DejaVuSans-1c" d="M 703 97 
L 703 672 
Q 941 559 1184 500 
Q 1428 441 1663 441 
Q 2288 441 2617 861 
Q 2947 1281 2994 2138 
Q 2813 1869 2534 1725 
Q 2256 1581 1919 1581 
Q 1219 1581 811 2004 
Q 403 2428 403 3163 
Q 403 3881 828 4315 
Q 1253 4750 1959 4750 
Q 2769 4750 3195 4129 
Q 3622 3509 3622 2328 
Q 3622 1225 3098 567 
Q 2575 -91 1691 -91 
Q 1453 -91 1209 -44 
Q 966 3 703 97 
z
M 1959 2075 
Q 2384 2075 2632 2365 
Q 2881 2656 2881 3163 
Q 2881 3666 2632 3958 
Q 2384 4250 1959 4250 
Q 1534 4250 1286 3958 
Q 1038 3666 1038 3163 
Q 1038 2656 1286 2365 
Q 1534 2075 1959 2075 
z
" transform="scale(0.015625)"/>
       </defs>
       <use xlink:href="#DejaVuSans-14" transform="translate(0 0.746875)"/>
       <use xlink:href="#DejaVuSans-13" transform="translate(63.623047 0.746875)"/>
       <use xlink:href="#DejaVuSans-c9c" transform="translate(128.203125 42.046875) scale(0.7)"/>
       <use xlink:href="#DejaVuSans-1c" transform="translate(186.855469 42.046875) scale(0.7)"/>
      </g>
     </g>
    </g>
    <g id="ytick_2">
     <g id="line2d_17">
      <path d="M 48.352109 182.743638 
L 405.472109 182.743638 
" clip-path="url(#p9ca663f37f)" style="fill: none; stroke: #e4e3df; stroke-width: 0.6; stroke-linecap: square"/>
     </g>
     <g id="line2d_18">
      <g>
       <use xlink:href="#mae84c835b6" x="48.352109" y="182.743638" style="fill: #52514e; stroke: #52514e; stroke-width: 0.8"/>
      </g>
     </g>
     <g id="text_10">
      <!-- $\mathdefault{10^{-8}}$ -->
      <g style="fill: #0b0b0b" transform="translate(20.202109 186.973638) scale(0.09 -0.09)">
       <use xlink:href="#DejaVuSans-14" transform="translate(0 0.746875)"/>
       <use xlink:href="#DejaVuSans-13" transform="translate(63.623047 0.746875)"/>
       <use xlink:href="#DejaVuSans-c9c" transform="translate(128.203125 42.046875) scale(0.7)"/>
       <use xlink:href="#DejaVuSans-1b" transform="translate(186.855469 42.046875) scale(0.7)"/>
      </g>
     </g>
    </g>
    <g id="ytick_3">
     <g id="line2d_19">
      <path d="M 48.352109 158.263832 
L 405.472109 158.263832 
" clip-path="url(#p9ca663f37f)" style="fill: none; stroke: #e4e3df; stroke-width: 0.6; stroke-linecap: square"/>
     </g>
     <g id="line2d_20">
      <g>
       <use xlink:href="#mae84c835b6" x="48.352109" y="158.263832" style="fill: #52514e; stroke: #52514e; stroke-width: 0.8"/>
      </g>
     </g>
     <g id="text_11">
      <!-- $\mathdefault{10^{-7}}$ -->
      <g style="fill: #0b0b0b" transform="translate(20.202109 162.448832) scale(0.09 -0.09)">
       <defs>
        <path id="DejaVuSans-1a" d="M 525 4666 
L 3525 4666 
L 3525 4397 
L 1831 0 
L 1172 0 
L 2766 4134 
L 525 4134 
L 525 4666 
z
" transform="scale(0.015625)"/>
       </defs>
       <use xlink:href="#DejaVuSans-14" transform="translate(0 0.665625)"/>
       <use xlink:href="#DejaVuSans-13" transform="translate(63.623047 0.665625)"/>
       <use xlink:href="#DejaVuSans-c9c" transform="translate(128.203125 41.965625) scale(0.7)"/>
       <use xlink:href="#DejaVuSans-1a" transform="translate(186.855469 41.965625) scale(0.7)"/>
      </g>
     </g>
    </g>
    <g id="ytick_4">
     <g id="line2d_21">
      <path d="M 48.352109 133.784027 
L 405.472109 133.784027 
" clip-path="url(#p9ca663f37f)" style="fill: none; stroke: #e4e3df; stroke-width: 0.6; stroke-linecap: square"/>
     </g>
     <g id="line2d_22">
      <g>
       <use xlink:href="#mae84c835b6" x="48.352109" y="133.784027" style="fill: #52514e; stroke: #52514e; stroke-width: 0.8"/>
      </g>
     </g>
     <g id="text_12">
      <!-- $\mathdefault{10^{-6}}$ -->
      <g style="fill: #0b0b0b" transform="translate(20.202109 138.014027) scale(0.09 -0.09)">
       <use xlink:href="#DejaVuSans-14" transform="translate(0 0.746875)"/>
       <use xlink:href="#DejaVuSans-13" transform="translate(63.623047 0.746875)"/>
       <use xlink:href="#DejaVuSans-c9c" transform="translate(128.203125 42.046875) scale(0.7)"/>
       <use xlink:href="#DejaVuSans-19" transform="translate(186.855469 42.046875) scale(0.7)"/>
      </g>
     </g>
    </g>
    <g id="ytick_5">
     <g id="line2d_23">
      <path d="M 48.352109 109.304222 
L 405.472109 109.304222 
" clip-path="url(#p9ca663f37f)" style="fill: none; stroke: #e4e3df; stroke-width: 0.6; stroke-linecap: square"/>
     </g>
     <g id="line2d_24">
      <g>
       <use xlink:href="#mae84c835b6" x="48.352109" y="109.304222" style="fill: #52514e; stroke: #52514e; stroke-width: 0.8"/>
      </g>
     </g>
     <g id="text_13">
      <!-- $\mathdefault{10^{-5}}$ -->
      <g style="fill: #0b0b0b" transform="translate(20.202109 113.489222) scale(0.09 -0.09)">
       <defs>
        <path id="DejaVuSans-18" d="M 691 4666 
L 3169 4666 
L 3169 4134 
L 1269 4134 
L 1269 2991 
Q 1406 3038 1543 3061 
Q 1681 3084 1819 3084 
Q 2600 3084 3056 2656 
Q 3513 2228 3513 1497 
Q 3513 744 3044 326 
Q 2575 -91 1722 -91 
Q 1428 -91 1123 -41 
Q 819 9 494 109 
L 494 744 
Q 775 591 1075 516 
Q 1375 441 1709 441 
Q 2250 441 2565 725 
Q 2881 1009 2881 1497 
Q 2881 1984 2565 2268 
Q 2250 2553 1709 2553 
Q 1456 2553 1204 2497 
Q 953 2441 691 2322 
L 691 4666 
z
" transform="scale(0.015625)"/>
       </defs>
       <use xlink:href="#DejaVuSans-14" transform="translate(0 0.665625)"/>
       <use xlink:href="#DejaVuSans-13" transform="translate(63.623047 0.665625)"/>
       <use xlink:href="#DejaVuSans-c9c" transform="translate(128.203125 41.965625) scale(0.7)"/>
       <use xlink:href="#DejaVuSans-18" transform="translate(186.855469 41.965625) scale(0.7)"/>
      </g>
     </g>
    </g>
    <g id="ytick_6">
     <g id="line2d_25">
      <path d="M 48.352109 84.824416 
L 405.472109 84.824416 
" clip-path="url(#p9ca663f37f)" style="fill: none; stroke: #e4e3df; stroke-width: 0.6; stroke-linecap: square"/>
     </g>
     <g id="line2d_26">
      <g>
       <use xlink:href="#mae84c835b6" x="48.352109" y="84.824416" style="fill: #52514e; stroke: #52514e; stroke-width: 0.8"/>
      </g>
     </g>
     <g id="text_14">
      <!-- $\mathdefault{10^{-4}}$ -->
      <g style="fill: #0b0b0b" transform="translate(20.202109 89.009416) scale(0.09 -0.09)">
       <use xlink:href="#DejaVuSans-14" transform="translate(0 0.665625)"/>
       <use xlink:href="#DejaVuSans-13" transform="translate(63.623047 0.665625)"/>
       <use xlink:href="#DejaVuSans-c9c" transform="translate(128.203125 41.965625) scale(0.7)"/>
       <use xlink:href="#DejaVuSans-17" transform="translate(186.855469 41.965625) scale(0.7)"/>
      </g>
     </g>
    </g>
    <g id="ytick_7">
     <g id="line2d_27">
      <path d="M 48.352109 60.344611 
L 405.472109 60.344611 
" clip-path="url(#p9ca663f37f)" style="fill: none; stroke: #e4e3df; stroke-width: 0.6; stroke-linecap: square"/>
     </g>
     <g id="line2d_28">
      <g>
       <use xlink:href="#mae84c835b6" x="48.352109" y="60.344611" style="fill: #52514e; stroke: #52514e; stroke-width: 0.8"/>
      </g>
     </g>
     <g id="text_15">
      <!-- $\mathdefault{10^{-3}}$ -->
      <g style="fill: #0b0b0b" transform="translate(20.202109 64.574611) scale(0.09 -0.09)">
       <defs>
        <path id="DejaVuSans-16" d="M 2597 2516 
Q 3050 2419 3304 2112 
Q 3559 1806 3559 1356 
Q 3559 666 3084 287 
Q 2609 -91 1734 -91 
Q 1441 -91 1130 -33 
Q 819 25 488 141 
L 488 750 
Q 750 597 1062 519 
Q 1375 441 1716 441 
Q 2309 441 2620 675 
Q 2931 909 2931 1356 
Q 2931 1769 2642 2001 
Q 2353 2234 1838 2234 
L 1294 2234 
L 1294 2753 
L 1863 2753 
Q 2328 2753 2575 2939 
Q 2822 3125 2822 3475 
Q 2822 3834 2567 4026 
Q 2313 4219 1838 4219 
Q 1578 4219 1281 4162 
Q 984 4106 628 3988 
L 628 4550 
Q 988 4650 1302 4700 
Q 1616 4750 1894 4750 
Q 2613 4750 3031 4423 
Q 3450 4097 3450 3541 
Q 3450 3153 3228 2886 
Q 3006 2619 2597 2516 
z
" transform="scale(0.015625)"/>
       </defs>
       <use xlink:href="#DejaVuSans-14" transform="translate(0 0.746875)"/>
       <use xlink:href="#DejaVuSans-13" transform="translate(63.623047 0.746875)"/>
       <use xlink:href="#DejaVuSans-c9c" transform="translate(128.203125 42.046875) scale(0.7)"/>
       <use xlink:href="#DejaVuSans-16" transform="translate(186.855469 42.046875) scale(0.7)"/>
      </g>
     </g>
    </g>
    <g id="ytick_8">
     <g id="line2d_29">
      <path d="M 48.352109 35.864805 
L 405.472109 35.864805 
" clip-path="url(#p9ca663f37f)" style="fill: none; stroke: #e4e3df; stroke-width: 0.6; stroke-linecap: square"/>
     </g>
     <g id="line2d_30">
      <g>
       <use xlink:href="#mae84c835b6" x="48.352109" y="35.864805" style="fill: #52514e; stroke: #52514e; stroke-width: 0.8"/>
      </g>
     </g>
     <g id="text_16">
      <!-- $\mathdefault{10^{-2}}$ -->
      <g style="fill: #0b0b0b" transform="translate(20.202109 40.094805) scale(0.09 -0.09)">
       <use xlink:href="#DejaVuSans-14" transform="translate(0 0.746875)"/>
       <use xlink:href="#DejaVuSans-13" transform="translate(63.623047 0.746875)"/>
       <use xlink:href="#DejaVuSans-c9c" transform="translate(128.203125 42.046875) scale(0.7)"/>
       <use xlink:href="#DejaVuSans-15" transform="translate(186.855469 42.046875) scale(0.7)"/>
      </g>
     </g>
    </g>
    <g id="ytick_9">
     <g id="line2d_31">
      <path d="M 48.352109 11.385 
L 405.472109 11.385 
" clip-path="url(#p9ca663f37f)" style="fill: none; stroke: #e4e3df; stroke-width: 0.6; stroke-linecap: square"/>
     </g>
     <g id="line2d_32">
      <g>
       <use xlink:href="#mae84c835b6" x="48.352109" y="11.385" style="fill: #52514e; stroke: #52514e; stroke-width: 0.8"/>
      </g>
     </g>
     <g id="text_17">
      <!-- $\mathdefault{10^{-1}}$ -->
      <g style="fill: #0b0b0b" transform="translate(20.202109 15.57) scale(0.09 -0.09)">
       <use xlink:href="#DejaVuSans-14" transform="translate(0 0.665625)"/>
       <use xlink:href="#DejaVuSans-13" transform="translate(63.623047 0.665625)"/>
       <use xlink:href="#DejaVuSans-c9c" transform="translate(128.203125 41.965625) scale(0.7)"/>
       <use xlink:href="#DejaVuSans-14" transform="translate(186.855469 41.965625) scale(0.7)"/>
      </g>
     </g>
    </g>
    <g id="ytick_10">
     <g id="line2d_33">
      <defs>
       <path id="md362fe4c2e" d="M 0 0 
L -2 0 
" style="stroke: #52514e; stroke-width: 0.6"/>
      </defs>
      <g>
       <use xlink:href="#md362fe4c2e" x="48.352109" y="209.595781" style="fill: #52514e; stroke: #52514e; stroke-width: 0.6"/>
      </g>
     </g>
    </g>
    <g id="ytick_11">
     <g id="line2d_34">
      <g>
       <use xlink:href="#md362fe4c2e" x="48.352109" y="208.343577" style="fill: #52514e; stroke: #52514e; stroke-width: 0.6"/>
      </g>
     </g>
    </g>
    <g id="ytick_12">
     <g id="line2d_35">
      <g>
       <use xlink:href="#md362fe4c2e" x="48.352109" y="199.854287" style="fill: #52514e; stroke: #52514e; stroke-width: 0.6"/>
      </g>
     </g>
    </g>
    <g id="ytick_13">
     <g id="line2d_36">
      <g>
       <use xlink:href="#md362fe4c2e" x="48.352109" y="195.543608" style="fill: #52514e; stroke: #52514e; stroke-width: 0.6"/>
      </g>
     </g>
    </g>
    <g id="ytick_14">
     <g id="line2d_37">
      <g>
       <use xlink:href="#md362fe4c2e" x="48.352109" y="192.485132" style="fill: #52514e; stroke: #52514e; stroke-width: 0.6"/>
      </g>
     </g>
    </g>
    <g id="ytick_15">
     <g id="line2d_38">
      <g>
       <use xlink:href="#md362fe4c2e" x="48.352109" y="190.112793" style="fill: #52514e; stroke: #52514e; stroke-width: 0.6"/>
      </g>
     </g>
    </g>
    <g id="ytick_16">
     <g id="line2d_39">
      <g>
       <use xlink:href="#md362fe4c2e" x="48.352109" y="188.174452" style="fill: #52514e; stroke: #52514e; stroke-width: 0.6"/>
      </g>
     </g>
    </g>
    <g id="ytick_17">
     <g id="line2d_40">
      <g>
       <use xlink:href="#md362fe4c2e" x="48.352109" y="186.535607" style="fill: #52514e; stroke: #52514e; stroke-width: 0.6"/>
      </g>
     </g>
    </g>
    <g id="ytick_18">
     <g id="line2d_41">
      <g>
       <use xlink:href="#md362fe4c2e" x="48.352109" y="185.115976" style="fill: #52514e; stroke: #52514e; stroke-width: 0.6"/>
      </g>
     </g>
    </g>
    <g id="ytick_19">
     <g id="line2d_42">
      <g>
       <use xlink:href="#md362fe4c2e" x="48.352109" y="183.863772" style="fill: #52514e; stroke: #52514e; stroke-width: 0.6"/>
      </g>
     </g>
    </g>
    <g id="ytick_20">
     <g id="line2d_43">
      <g>
       <use xlink:href="#md362fe4c2e" x="48.352109" y="175.374482" style="fill: #52514e; stroke: #52514e; stroke-width: 0.6"/>
      </g>
     </g>
    </g>
    <g id="ytick_21">
     <g id="line2d_44">
      <g>
       <use xlink:href="#md362fe4c2e" x="48.352109" y="171.063802" style="fill: #52514e; stroke: #52514e; stroke-width: 0.6"/>
      </g>
     </g>
    </g>
    <g id="ytick_22">
     <g id="line2d_45">
      <g>
       <use xlink:href="#md362fe4c2e" x="48.352109" y="168.005326" style="fill: #52514e; stroke: #52514e; stroke-width: 0.6"/>
      </g>
     </g>
    </g>
    <g id="ytick_23">
     <g id="line2d_46">
      <g>
       <use xlink:href="#md362fe4c2e" x="48.352109" y="165.632988" style="fill: #52514e; stroke: #52514e; stroke-width: 0.6"/>
      </g>
     </g>
    </g>
    <g id="ytick_24">
     <g id="line2d_47">
      <g>
       <use xlink:href="#md362fe4c2e" x="48.352109" y="163.694646" style="fill: #52514e; stroke: #52514e; stroke-width: 0.6"/>
      </g>
     </g>
    </g>
    <g id="ytick_25">
     <g id="line2d_48">
      <g>
       <use xlink:href="#md362fe4c2e" x="48.352109" y="162.055802" style="fill: #52514e; stroke: #52514e; stroke-width: 0.6"/>
      </g>
     </g>
    </g>
    <g id="ytick_26">
     <g id="line2d_49">
      <g>
       <use xlink:href="#md362fe4c2e" x="48.352109" y="160.636171" style="fill: #52514e; stroke: #52514e; stroke-width: 0.6"/>
      </g>
     </g>
    </g>
    <g id="ytick_27">
     <g id="line2d_50">
      <g>
       <use xlink:href="#md362fe4c2e" x="48.352109" y="159.383967" style="fill: #52514e; stroke: #52514e; stroke-width: 0.6"/>
      </g>
     </g>
    </g>
    <g id="ytick_28">
     <g id="line2d_51">
      <g>
       <use xlink:href="#md362fe4c2e" x="48.352109" y="150.894677" style="fill: #52514e; stroke: #52514e; stroke-width: 0.6"/>
      </g>
     </g>
    </g>
    <g id="ytick_29">
     <g id="line2d_52">
      <g>
       <use xlink:href="#md362fe4c2e" x="48.352109" y="146.583997" style="fill: #52514e; stroke: #52514e; stroke-width: 0.6"/>
      </g>
     </g>
    </g>
    <g id="ytick_30">
     <g id="line2d_53">
      <g>
       <use xlink:href="#md362fe4c2e" x="48.352109" y="143.525521" style="fill: #52514e; stroke: #52514e; stroke-width: 0.6"/>
      </g>
     </g>
    </g>
    <g id="ytick_31">
     <g id="line2d_54">
      <g>
       <use xlink:href="#md362fe4c2e" x="48.352109" y="141.153183" style="fill: #52514e; stroke: #52514e; stroke-width: 0.6"/>
      </g>
     </g>
    </g>
    <g id="ytick_32">
     <g id="line2d_55">
      <g>
       <use xlink:href="#md362fe4c2e" x="48.352109" y="139.214841" style="fill: #52514e; stroke: #52514e; stroke-width: 0.6"/>
      </g>
     </g>
    </g>
    <g id="ytick_33">
     <g id="line2d_56">
      <g>
       <use xlink:href="#md362fe4c2e" x="48.352109" y="137.575997" style="fill: #52514e; stroke: #52514e; stroke-width: 0.6"/>
      </g>
     </g>
    </g>
    <g id="ytick_34">
     <g id="line2d_57">
      <g>
       <use xlink:href="#md362fe4c2e" x="48.352109" y="136.156365" style="fill: #52514e; stroke: #52514e; stroke-width: 0.6"/>
      </g>
     </g>
    </g>
    <g id="ytick_35">
     <g id="line2d_58">
      <g>
       <use xlink:href="#md362fe4c2e" x="48.352109" y="134.904161" style="fill: #52514e; stroke: #52514e; stroke-width: 0.6"/>
      </g>
     </g>
    </g>
    <g id="ytick_36">
     <g id="line2d_59">
      <g>
       <use xlink:href="#md362fe4c2e" x="48.352109" y="126.414871" style="fill: #52514e; stroke: #52514e; stroke-width: 0.6"/>
      </g>
     </g>
    </g>
    <g id="ytick_37">
     <g id="line2d_60">
      <g>
       <use xlink:href="#md362fe4c2e" x="48.352109" y="122.104191" style="fill: #52514e; stroke: #52514e; stroke-width: 0.6"/>
      </g>
     </g>
    </g>
    <g id="ytick_38">
     <g id="line2d_61">
      <g>
       <use xlink:href="#md362fe4c2e" x="48.352109" y="119.045715" style="fill: #52514e; stroke: #52514e; stroke-width: 0.6"/>
      </g>
     </g>
    </g>
    <g id="ytick_39">
     <g id="line2d_62">
      <g>
       <use xlink:href="#md362fe4c2e" x="48.352109" y="116.673377" style="fill: #52514e; stroke: #52514e; stroke-width: 0.6"/>
      </g>
     </g>
    </g>
    <g id="ytick_40">
     <g id="line2d_63">
      <g>
       <use xlink:href="#md362fe4c2e" x="48.352109" y="114.735036" style="fill: #52514e; stroke: #52514e; stroke-width: 0.6"/>
      </g>
     </g>
    </g>
    <g id="ytick_41">
     <g id="line2d_64">
      <g>
       <use xlink:href="#md362fe4c2e" x="48.352109" y="113.096191" style="fill: #52514e; stroke: #52514e; stroke-width: 0.6"/>
      </g>
     </g>
    </g>
    <g id="ytick_42">
     <g id="line2d_65">
      <g>
       <use xlink:href="#md362fe4c2e" x="48.352109" y="111.67656" style="fill: #52514e; stroke: #52514e; stroke-width: 0.6"/>
      </g>
     </g>
    </g>
    <g id="ytick_43">
     <g id="line2d_66">
      <g>
       <use xlink:href="#md362fe4c2e" x="48.352109" y="110.424356" style="fill: #52514e; stroke: #52514e; stroke-width: 0.6"/>
      </g>
     </g>
    </g>
    <g id="ytick_44">
     <g id="line2d_67">
      <g>
       <use xlink:href="#md362fe4c2e" x="48.352109" y="101.935066" style="fill: #52514e; stroke: #52514e; stroke-width: 0.6"/>
      </g>
     </g>
    </g>
    <g id="ytick_45">
     <g id="line2d_68">
      <g>
       <use xlink:href="#md362fe4c2e" x="48.352109" y="97.624386" style="fill: #52514e; stroke: #52514e; stroke-width: 0.6"/>
      </g>
     </g>
    </g>
    <g id="ytick_46">
     <g id="line2d_69">
      <g>
       <use xlink:href="#md362fe4c2e" x="48.352109" y="94.56591" style="fill: #52514e; stroke: #52514e; stroke-width: 0.6"/>
      </g>
     </g>
    </g>
    <g id="ytick_47">
     <g id="line2d_70">
      <g>
       <use xlink:href="#md362fe4c2e" x="48.352109" y="92.193572" style="fill: #52514e; stroke: #52514e; stroke-width: 0.6"/>
      </g>
     </g>
    </g>
    <g id="ytick_48">
     <g id="line2d_71">
      <g>
       <use xlink:href="#md362fe4c2e" x="48.352109" y="90.25523" style="fill: #52514e; stroke: #52514e; stroke-width: 0.6"/>
      </g>
     </g>
    </g>
    <g id="ytick_49">
     <g id="line2d_72">
      <g>
       <use xlink:href="#md362fe4c2e" x="48.352109" y="88.616386" style="fill: #52514e; stroke: #52514e; stroke-width: 0.6"/>
      </g>
     </g>
    </g>
    <g id="ytick_50">
     <g id="line2d_73">
      <g>
       <use xlink:href="#md362fe4c2e" x="48.352109" y="87.196754" style="fill: #52514e; stroke: #52514e; stroke-width: 0.6"/>
      </g>
     </g>
    </g>
    <g id="ytick_51">
     <g id="line2d_74">
      <g>
       <use xlink:href="#md362fe4c2e" x="48.352109" y="85.944551" style="fill: #52514e; stroke: #52514e; stroke-width: 0.6"/>
      </g>
     </g>
    </g>
    <g id="ytick_52">
     <g id="line2d_75">
      <g>
       <use xlink:href="#md362fe4c2e" x="48.352109" y="77.45526" style="fill: #52514e; stroke: #52514e; stroke-width: 0.6"/>
      </g>
     </g>
    </g>
    <g id="ytick_53">
     <g id="line2d_76">
      <g>
       <use xlink:href="#md362fe4c2e" x="48.352109" y="73.144581" style="fill: #52514e; stroke: #52514e; stroke-width: 0.6"/>
      </g>
     </g>
    </g>
    <g id="ytick_54">
     <g id="line2d_77">
      <g>
       <use xlink:href="#md362fe4c2e" x="48.352109" y="70.086105" style="fill: #52514e; stroke: #52514e; stroke-width: 0.6"/>
      </g>
     </g>
    </g>
    <g id="ytick_55">
     <g id="line2d_78">
      <g>
       <use xlink:href="#md362fe4c2e" x="48.352109" y="67.713766" style="fill: #52514e; stroke: #52514e; stroke-width: 0.6"/>
      </g>
     </g>
    </g>
    <g id="ytick_56">
     <g id="line2d_79">
      <g>
       <use xlink:href="#md362fe4c2e" x="48.352109" y="65.775425" style="fill: #52514e; stroke: #52514e; stroke-width: 0.6"/>
      </g>
     </g>
    </g>
    <g id="ytick_57">
     <g id="line2d_80">
      <g>
       <use xlink:href="#md362fe4c2e" x="48.352109" y="64.136581" style="fill: #52514e; stroke: #52514e; stroke-width: 0.6"/>
      </g>
     </g>
    </g>
    <g id="ytick_58">
     <g id="line2d_81">
      <g>
       <use xlink:href="#md362fe4c2e" x="48.352109" y="62.716949" style="fill: #52514e; stroke: #52514e; stroke-width: 0.6"/>
      </g>
     </g>
    </g>
    <g id="ytick_59">
     <g id="line2d_82">
      <g>
       <use xlink:href="#md362fe4c2e" x="48.352109" y="61.464745" style="fill: #52514e; stroke: #52514e; stroke-width: 0.6"/>
      </g>
     </g>
    </g>
    <g id="ytick_60">
     <g id="line2d_83">
      <g>
       <use xlink:href="#md362fe4c2e" x="48.352109" y="52.975455" style="fill: #52514e; stroke: #52514e; stroke-width: 0.6"/>
      </g>
     </g>
    </g>
    <g id="ytick_61">
     <g id="line2d_84">
      <g>
       <use xlink:href="#md362fe4c2e" x="48.352109" y="48.664775" style="fill: #52514e; stroke: #52514e; stroke-width: 0.6"/>
      </g>
     </g>
    </g>
    <g id="ytick_62">
     <g id="line2d_85">
      <g>
       <use xlink:href="#md362fe4c2e" x="48.352109" y="45.606299" style="fill: #52514e; stroke: #52514e; stroke-width: 0.6"/>
      </g>
     </g>
    </g>
    <g id="ytick_63">
     <g id="line2d_86">
      <g>
       <use xlink:href="#md362fe4c2e" x="48.352109" y="43.233961" style="fill: #52514e; stroke: #52514e; stroke-width: 0.6"/>
      </g>
     </g>
    </g>
    <g id="ytick_64">
     <g id="line2d_87">
      <g>
       <use xlink:href="#md362fe4c2e" x="48.352109" y="41.29562" style="fill: #52514e; stroke: #52514e; stroke-width: 0.6"/>
      </g>
     </g>
    </g>
    <g id="ytick_65">
     <g id="line2d_88">
      <g>
       <use xlink:href="#md362fe4c2e" x="48.352109" y="39.656775" style="fill: #52514e; stroke: #52514e; stroke-width: 0.6"/>
      </g>
     </g>
    </g>
    <g id="ytick_66">
     <g id="line2d_89">
      <g>
       <use xlink:href="#md362fe4c2e" x="48.352109" y="38.237144" style="fill: #52514e; stroke: #52514e; stroke-width: 0.6"/>
      </g>
     </g>
    </g>
    <g id="ytick_67">
     <g id="line2d_90">
      <g>
       <use xlink:href="#md362fe4c2e" x="48.352109" y="36.98494" style="fill: #52514e; stroke: #52514e; stroke-width: 0.6"/>
      </g>
     </g>
    </g>
    <g id="ytick_68">
     <g id="line2d_91">
      <g>
       <use xlink:href="#md362fe4c2e" x="48.352109" y="28.49565" style="fill: #52514e; stroke: #52514e; stroke-width: 0.6"/>
      </g>
     </g>
    </g>
    <g id="ytick_69">
     <g id="line2d_92">
      <g>
       <use xlink:href="#md362fe4c2e" x="48.352109" y="24.18497" style="fill: #52514e; stroke: #52514e; stroke-width: 0.6"/>
      </g>
     </g>
    </g>
    <g id="ytick_70">
     <g id="line2d_93">
      <g>
       <use xlink:href="#md362fe4c2e" x="48.352109" y="21.126494" style="fill: #52514e; stroke: #52514e; stroke-width: 0.6"/>
      </g>
     </g>
    </g>
    <g id="ytick_71">
     <g id="line2d_94">
      <g>
       <use xlink:href="#md362fe4c2e" x="48.352109" y="18.754156" style="fill: #52514e; stroke: #52514e; stroke-width: 0.6"/>
      </g>
     </g>
    </g>
    <g id="ytick_72">
     <g id="line2d_95">
      <g>
       <use xlink:href="#md362fe4c2e" x="48.352109" y="16.815814" style="fill: #52514e; stroke: #52514e; stroke-width: 0.6"/>
      </g>
     </g>
    </g>
    <g id="ytick_73">
     <g id="line2d_96">
      <g>
       <use xlink:href="#md362fe4c2e" x="48.352109" y="15.17697" style="fill: #52514e; stroke: #52514e; stroke-width: 0.6"/>
      </g>
     </g>
    </g>
    <g id="ytick_74">
     <g id="line2d_97">
      <g>
       <use xlink:href="#md362fe4c2e" x="48.352109" y="13.757338" style="fill: #52514e; stroke: #52514e; stroke-width: 0.6"/>
      </g>
     </g>
    </g>
    <g id="ytick_75">
     <g id="line2d_98">
      <g>
       <use xlink:href="#md362fe4c2e" x="48.352109" y="12.505134" style="fill: #52514e; stroke: #52514e; stroke-width: 0.6"/>
      </g>
     </g>
    </g>
    <g id="text_18">
     <!-- $I_D$ (A), log scale (solid) -->
     <g style="fill: #0b0b0b" transform="translate(14.04 161.142281) rotate(-90) scale(0.09 -0.09)">
      <defs>
       <path id="DejaVuSans-Oblique-2c" d="M 1081 4666 
L 1716 4666 
L 806 0 
L 172 0 
L 1081 4666 
z
" transform="scale(0.015625)"/>
       <path id="DejaVuSans-Oblique-27" d="M 1081 4666 
L 2438 4666 
Q 3519 4666 4070 4208 
Q 4622 3750 4622 2847 
Q 4622 2250 4412 1698 
Q 4203 1147 3834 769 
Q 3463 381 2891 190 
Q 2319 0 1538 0 
L 172 0 
L 1081 4666 
z
M 1613 4147 
L 909 519 
L 1734 519 
Q 2794 519 3375 1128 
Q 3956 1738 3956 2847 
Q 3956 3519 3581 3833 
Q 3206 4147 2406 4147 
L 1613 4147 
z
" transform="scale(0.015625)"/>
       <path id="DejaVuSans-24" d="M 2188 4044 
L 1331 1722 
L 3047 1722 
L 2188 4044 
z
M 1831 4666 
L 2547 4666 
L 4325 0 
L 3669 0 
L 3244 1197 
L 1141 1197 
L 716 0 
L 50 0 
L 1831 4666 
z
" transform="scale(0.015625)"/>
       <path id="DejaVuSans-f" d="M 750 794 
L 1409 794 
L 1409 256 
L 897 -744 
L 494 -744 
L 750 256 
L 750 794 
z
" transform="scale(0.015625)"/>
       <path id="DejaVuSans-4f" d="M 603 4863 
L 1178 4863 
L 1178 0 
L 603 0 
L 603 4863 
z
" transform="scale(0.015625)"/>
       <path id="DejaVuSans-52" d="M 1959 3097 
Q 1497 3097 1228 2736 
Q 959 2375 959 1747 
Q 959 1119 1226 758 
Q 1494 397 1959 397 
Q 2419 397 2687 759 
Q 2956 1122 2956 1747 
Q 2956 2369 2687 2733 
Q 2419 3097 1959 3097 
z
M 1959 3584 
Q 2709 3584 3137 3096 
Q 3566 2609 3566 1747 
Q 3566 888 3137 398 
Q 2709 -91 1959 -91 
Q 1206 -91 779 398 
Q 353 888 353 1747 
Q 353 2609 779 3096 
Q 1206 3584 1959 3584 
z
" transform="scale(0.015625)"/>
       <path id="DejaVuSans-4a" d="M 2906 1791 
Q 2906 2416 2648 2759 
Q 2391 3103 1925 3103 
Q 1463 3103 1205 2759 
Q 947 2416 947 1791 
Q 947 1169 1205 825 
Q 1463 481 1925 481 
Q 2391 481 2648 825 
Q 2906 1169 2906 1791 
z
M 3481 434 
Q 3481 -459 3084 -895 
Q 2688 -1331 1869 -1331 
Q 1566 -1331 1297 -1286 
Q 1028 -1241 775 -1147 
L 775 -588 
Q 1028 -725 1275 -790 
Q 1522 -856 1778 -856 
Q 2344 -856 2625 -561 
Q 2906 -266 2906 331 
L 2906 616 
Q 2728 306 2450 153 
Q 2172 0 1784 0 
Q 1141 0 747 490 
Q 353 981 353 1791 
Q 353 2603 747 3093 
Q 1141 3584 1784 3584 
Q 2172 3584 2450 3431 
Q 2728 3278 2906 2969 
L 2906 3500 
L 3481 3500 
L 3481 434 
z
" transform="scale(0.015625)"/>
       <path id="DejaVuSans-56" d="M 2834 3397 
L 2834 2853 
Q 2591 2978 2328 3040 
Q 2066 3103 1784 3103 
Q 1356 3103 1142 2972 
Q 928 2841 928 2578 
Q 928 2378 1081 2264 
Q 1234 2150 1697 2047 
L 1894 2003 
Q 2506 1872 2764 1633 
Q 3022 1394 3022 966 
Q 3022 478 2636 193 
Q 2250 -91 1575 -91 
Q 1294 -91 989 -36 
Q 684 19 347 128 
L 347 722 
Q 666 556 975 473 
Q 1284 391 1588 391 
Q 1994 391 2212 530 
Q 2431 669 2431 922 
Q 2431 1156 2273 1281 
Q 2116 1406 1581 1522 
L 1381 1569 
Q 847 1681 609 1914 
Q 372 2147 372 2553 
Q 372 3047 722 3315 
Q 1072 3584 1716 3584 
Q 2034 3584 2315 3537 
Q 2597 3491 2834 3397 
z
" transform="scale(0.015625)"/>
       <path id="DejaVuSans-46" d="M 3122 3366 
L 3122 2828 
Q 2878 2963 2633 3030 
Q 2388 3097 2138 3097 
Q 1578 3097 1268 2742 
Q 959 2388 959 1747 
Q 959 1106 1268 751 
Q 1578 397 2138 397 
Q 2388 397 2633 464 
Q 2878 531 3122 666 
L 3122 134 
Q 2881 22 2623 -34 
Q 2366 -91 2075 -91 
Q 1284 -91 818 406 
Q 353 903 353 1747 
Q 353 2603 823 3093 
Q 1294 3584 2113 3584 
Q 2378 3584 2631 3529 
Q 2884 3475 3122 3366 
z
" transform="scale(0.015625)"/>
       <path id="DejaVuSans-44" d="M 2194 1759 
Q 1497 1759 1228 1600 
Q 959 1441 959 1056 
Q 959 750 1161 570 
Q 1363 391 1709 391 
Q 2188 391 2477 730 
Q 2766 1069 2766 1631 
L 2766 1759 
L 2194 1759 
z
M 3341 1997 
L 3341 0 
L 2766 0 
L 2766 531 
Q 2569 213 2275 61 
Q 1981 -91 1556 -91 
Q 1019 -91 701 211 
Q 384 513 384 1019 
Q 384 1609 779 1909 
Q 1175 2209 1959 2209 
L 2766 2209 
L 2766 2266 
Q 2766 2663 2505 2880 
Q 2244 3097 1772 3097 
Q 1472 3097 1187 3025 
Q 903 2953 641 2809 
L 641 3341 
Q 956 3463 1253 3523 
Q 1550 3584 1831 3584 
Q 2591 3584 2966 3190 
Q 3341 2797 3341 1997 
z
" transform="scale(0.015625)"/>
       <path id="DejaVuSans-48" d="M 3597 1894 
L 3597 1613 
L 953 1613 
Q 991 1019 1311 708 
Q 1631 397 2203 397 
Q 2534 397 2845 478 
Q 3156 559 3463 722 
L 3463 178 
Q 3153 47 2828 -22 
Q 2503 -91 2169 -91 
Q 1331 -91 842 396 
Q 353 884 353 1716 
Q 353 2575 817 3079 
Q 1281 3584 2069 3584 
Q 2775 3584 3186 3129 
Q 3597 2675 3597 1894 
z
M 3022 2063 
Q 3016 2534 2758 2815 
Q 2500 3097 2075 3097 
Q 1594 3097 1305 2825 
Q 1016 2553 972 2059 
L 3022 2063 
z
" transform="scale(0.015625)"/>
       <path id="DejaVuSans-4c" d="M 603 3500 
L 1178 3500 
L 1178 0 
L 603 0 
L 603 3500 
z
M 603 4863 
L 1178 4863 
L 1178 4134 
L 603 4134 
L 603 4863 
z
" transform="scale(0.015625)"/>
       <path id="DejaVuSans-47" d="M 2906 2969 
L 2906 4863 
L 3481 4863 
L 3481 0 
L 2906 0 
L 2906 525 
Q 2725 213 2448 61 
Q 2172 -91 1784 -91 
Q 1150 -91 751 415 
Q 353 922 353 1747 
Q 353 2572 751 3078 
Q 1150 3584 1784 3584 
Q 2172 3584 2448 3432 
Q 2725 3281 2906 2969 
z
M 947 1747 
Q 947 1113 1208 752 
Q 1469 391 1925 391 
Q 2381 391 2643 752 
Q 2906 1113 2906 1747 
Q 2906 2381 2643 2742 
Q 2381 3103 1925 3103 
Q 1469 3103 1208 2742 
Q 947 2381 947 1747 
z
" transform="scale(0.015625)"/>
      </defs>
      <use xlink:href="#DejaVuSans-Oblique-2c" transform="translate(0 0.015625)"/>
      <use xlink:href="#DejaVuSans-Oblique-27" transform="translate(29.492188 -14.984326) scale(0.7)"/>
      <use xlink:href="#DejaVuSans-3" transform="translate(86.12793 0.015625)"/>
      <use xlink:href="#DejaVuSans-b" transform="translate(117.915039 0.015625)"/>
      <use xlink:href="#DejaVuSans-24" transform="translate(156.928711 0.015625)"/>
      <use xlink:href="#DejaVuSans-c" transform="translate(225.336914 0.015625)"/>
      <use xlink:href="#DejaVuSans-f" transform="translate(264.350586 0.015625)"/>
      <use xlink:href="#DejaVuSans-3" transform="translate(296.137695 0.015625)"/>
      <use xlink:href="#DejaVuSans-4f" transform="translate(327.924805 0.015625)"/>
      <use xlink:href="#DejaVuSans-52" transform="translate(355.708008 0.015625)"/>
      <use xlink:href="#DejaVuSans-4a" transform="translate(416.889648 0.015625)"/>
      <use xlink:href="#DejaVuSans-3" transform="translate(480.366211 0.015625)"/>
      <use xlink:href="#DejaVuSans-56" transform="translate(512.15332 0.015625)"/>
      <use xlink:href="#DejaVuSans-46" transform="translate(564.25293 0.015625)"/>
      <use xlink:href="#DejaVuSans-44" transform="translate(619.233398 0.015625)"/>
      <use xlink:href="#DejaVuSans-4f" transform="translate(680.512695 0.015625)"/>
      <use xlink:href="#DejaVuSans-48" transform="translate(708.295898 0.015625)"/>
      <use xlink:href="#DejaVuSans-3" transform="translate(769.819336 0.015625)"/>
      <use xlink:href="#DejaVuSans-b" transform="translate(801.606445 0.015625)"/>
      <use xlink:href="#DejaVuSans-56" transform="translate(840.620117 0.015625)"/>
      <use xlink:href="#DejaVuSans-52" transform="translate(892.719727 0.015625)"/>
      <use xlink:href="#DejaVuSans-4f" transform="translate(953.901367 0.015625)"/>
      <use xlink:href="#DejaVuSans-4c" transform="translate(981.68457 0.015625)"/>
      <use xlink:href="#DejaVuSans-47" transform="translate(1009.467773 0.015625)"/>
      <use xlink:href="#DejaVuSans-c" transform="translate(1072.944336 0.015625)"/>
     </g>
    </g>
   </g>
   <g id="line2d_99">
    <path d="M 48.352109 201.822281 
L 80.492909 171.242533 
L 114.716909 138.369045 
L 151.916909 102.642414 
L 161.142509 94.106711 
L 167.987309 88.053865 
L 173.939309 83.085846 
L 178.998509 79.139649 
L 183.760109 75.693688 
L 188.521709 72.527337 
L 192.985709 69.818383 
L 197.449709 67.356002 
L 202.211309 64.987611 
L 206.972909 62.865197 
L 212.032109 60.852484 
L 217.388909 58.960797 
L 223.043309 57.194427 
L 229.292909 55.475341 
L 236.137709 53.826726 
L 243.577709 52.262908 
L 251.910509 50.740411 
L 261.136109 49.281479 
L 271.552109 47.861844 
L 283.456109 46.471884 
L 296.848109 45.139129 
L 312.025709 43.857074 
L 329.286509 42.625359 
L 349.225709 41.43068 
L 372.140909 40.28562 
L 398.627309 39.189129 
L 405.472109 38.937521 
L 405.472109 38.937521 
" clip-path="url(#p9ca663f37f)" style="fill: none; stroke: #86b6ef; stroke-width: 1.6; stroke-linecap: square"/>
   </g>
   <g id="line2d_100">
    <path d="M 48.352109 194.389784 
L 80.195309 164.011818 
L 113.824109 131.615637 
L 148.345709 98.377554 
L 157.571309 89.822414 
L 164.713709 83.496283 
L 170.665709 78.513985 
L 176.022509 74.305946 
L 181.081709 70.596985 
L 186.140909 67.154497 
L 191.200109 63.975308 
L 196.259309 61.048158 
L 201.616109 58.205785 
L 207.270509 55.468798 
L 212.924909 52.976381 
L 218.876909 50.588704 
L 225.424109 48.208724 
L 232.268909 45.961117 
L 239.708909 43.758354 
L 247.744109 41.61959 
L 256.374509 39.558032 
L 265.600109 37.582033 
L 275.718509 35.642133 
L 286.729709 33.757154 
L 298.931309 31.897448 
L 312.323309 30.08592 
L 326.905709 28.338826 
L 343.273709 26.607766 
L 361.129709 24.946363 
L 381.068909 23.319182 
L 403.091309 21.749345 
L 405.472109 21.592017 
L 405.472109 21.592017 
" clip-path="url(#p9ca663f37f)" style="fill: none; stroke: #2a78d6; stroke-width: 1.6; stroke-linecap: square"/>
   </g>
   <g id="line2d_101">
    <path d="M 48.352109 188.094368 
L 79.897709 157.912729 
L 113.526509 125.419361 
L 141.500909 98.444154 
L 151.024109 89.581317 
L 158.166509 83.235648 
L 164.118509 78.237955 
L 169.475309 74.016288 
L 174.832109 70.082842 
L 179.891309 66.639801 
L 184.950509 63.455503 
L 190.307309 60.351364 
L 195.664109 57.502869 
L 201.318509 54.750566 
L 207.270509 52.11025 
L 213.520109 49.593244 
L 220.067309 47.206025 
L 226.912109 44.95041 
L 234.352109 42.740417 
L 242.387309 40.596525 
L 251.017709 38.532707 
L 260.243309 36.557625 
L 270.361709 34.621981 
L 281.372909 32.744609 
L 293.574509 30.895975 
L 306.966509 29.098799 
L 321.548909 27.369013 
L 337.619309 25.687757 
L 355.475309 24.045887 
L 375.414509 22.441256 
L 397.436909 20.895947 
L 405.472109 20.382281 
L 405.472109 20.382281 
" clip-path="url(#p9ca663f37f)" style="fill: none; stroke: #0d366b; stroke-width: 1.6; stroke-linecap: square"/>
   </g>
   <g id="patch_3">
    <path d="M 48.352109 210.894281 
L 48.352109 11.310281 
" style="fill: none; stroke: #52514e; stroke-width: 0.8; stroke-linejoin: miter; stroke-linecap: square"/>
   </g>
   <g id="patch_4">
    <path d="M 405.472109 210.894281 
L 405.472109 11.310281 
" style="fill: none; stroke: #52514e; stroke-width: 0.8; stroke-linejoin: miter; stroke-linecap: square"/>
   </g>
   <g id="patch_5">
    <path d="M 48.352109 210.894281 
L 405.472109 210.894281 
" style="fill: none; stroke: #52514e; stroke-width: 0.8; stroke-linejoin: miter; stroke-linecap: square"/>
   </g>
   <g id="patch_6">
    <path d="M 48.352109 11.310281 
L 405.472109 11.310281 
" style="fill: none; stroke: #52514e; stroke-width: 0.8; stroke-linejoin: miter; stroke-linecap: square"/>
   </g>
   <g id="legend_1">
    <g id="line2d_102">
     <path d="M 55.552109 21.789031 
L 63.552109 21.789031 
L 71.552109 21.789031 
" style="fill: none; stroke: #86b6ef; stroke-width: 1.6; stroke-linecap: square"/>
    </g>
    <g id="text_19">
     <!-- $V_{DS}$ = 0.05 V -->
     <g style="fill: #0b0b0b" transform="translate(77.952109 24.589031) scale(0.08 -0.08)">
      <defs>
       <path id="DejaVuSans-Oblique-36" d="M 3859 4513 
L 3738 3897 
Q 3422 4066 3111 4152 
Q 2800 4238 2509 4238 
Q 1944 4238 1609 3991 
Q 1275 3744 1275 3334 
Q 1275 3109 1398 2989 
Q 1522 2869 2034 2731 
L 2413 2638 
Q 3053 2472 3303 2217 
Q 3553 1963 3553 1503 
Q 3553 797 2998 353 
Q 2444 -91 1538 -91 
Q 1166 -91 791 -17 
Q 416 56 38 206 
L 166 856 
Q 513 641 861 531 
Q 1209 422 1556 422 
Q 2147 422 2503 684 
Q 2859 947 2859 1369 
Q 2859 1650 2717 1795 
Q 2575 1941 2106 2059 
L 1728 2156 
Q 1081 2325 845 2545 
Q 609 2766 609 3163 
Q 609 3859 1145 4304 
Q 1681 4750 2541 4750 
Q 2875 4750 3203 4690 
Q 3531 4631 3859 4513 
z
" transform="scale(0.015625)"/>
       <path id="DejaVuSans-20" d="M 678 2906 
L 4684 2906 
L 4684 2381 
L 678 2381 
L 678 2906 
z
M 678 1631 
L 4684 1631 
L 4684 1100 
L 678 1100 
L 678 1631 
z
" transform="scale(0.015625)"/>
      </defs>
      <use xlink:href="#DejaVuSans-Oblique-39" transform="translate(0 0.78125)"/>
      <use xlink:href="#DejaVuSans-Oblique-27" transform="translate(68.408203 -14.218701) scale(0.7)"/>
      <use xlink:href="#DejaVuSans-Oblique-36" transform="translate(122.30957 -14.218701) scale(0.7)"/>
      <use xlink:href="#DejaVuSans-3" transform="translate(169.477539 0.78125)"/>
      <use xlink:href="#DejaVuSans-20" transform="translate(201.264648 0.78125)"/>
      <use xlink:href="#DejaVuSans-3" transform="translate(285.053711 0.78125)"/>
      <use xlink:href="#DejaVuSans-13" transform="translate(316.84082 0.78125)"/>
      <use xlink:href="#DejaVuSans-11" transform="translate(380.463867 0.78125)"/>
      <use xlink:href="#DejaVuSans-13" transform="translate(412.250977 0.78125)"/>
      <use xlink:href="#DejaVuSans-18" transform="translate(475.874023 0.78125)"/>
      <use xlink:href="#DejaVuSans-3" transform="translate(539.49707 0.78125)"/>
      <use xlink:href="#DejaVuSans-39" transform="translate(571.28418 0.78125)"/>
     </g>
    </g>
    <g id="line2d_103">
     <path d="M 55.552109 33.789656 
L 63.552109 33.789656 
L 71.552109 33.789656 
" style="fill: none; stroke: #2a78d6; stroke-width: 1.6; stroke-linecap: square"/>
    </g>
    <g id="text_20">
     <!-- $V_{DS}$ = 0.6 V -->
     <g style="fill: #0b0b0b" transform="translate(77.952109 36.589656) scale(0.08 -0.08)">
      <use xlink:href="#DejaVuSans-Oblique-39" transform="translate(0 0.78125)"/>
      <use xlink:href="#DejaVuSans-Oblique-27" transform="translate(68.408203 -14.218701) scale(0.7)"/>
      <use xlink:href="#DejaVuSans-Oblique-36" transform="translate(122.30957 -14.218701) scale(0.7)"/>
      <use xlink:href="#DejaVuSans-3" transform="translate(169.477539 0.78125)"/>
      <use xlink:href="#DejaVuSans-20" transform="translate(201.264648 0.78125)"/>
      <use xlink:href="#DejaVuSans-3" transform="translate(285.053711 0.78125)"/>
      <use xlink:href="#DejaVuSans-13" transform="translate(316.84082 0.78125)"/>
      <use xlink:href="#DejaVuSans-11" transform="translate(380.463867 0.78125)"/>
      <use xlink:href="#DejaVuSans-19" transform="translate(412.250977 0.78125)"/>
      <use xlink:href="#DejaVuSans-3" transform="translate(475.874023 0.78125)"/>
      <use xlink:href="#DejaVuSans-39" transform="translate(507.661133 0.78125)"/>
     </g>
    </g>
    <g id="line2d_104">
     <path d="M 55.552109 45.790281 
L 63.552109 45.790281 
L 71.552109 45.790281 
" style="fill: none; stroke: #0d366b; stroke-width: 1.6; stroke-linecap: square"/>
    </g>
    <g id="text_21">
     <!-- $V_{DS}$ = 1.2 V -->
     <g style="fill: #0b0b0b" transform="translate(77.952109 48.590281) scale(0.08 -0.08)">
      <use xlink:href="#DejaVuSans-Oblique-39" transform="translate(0 0.78125)"/>
      <use xlink:href="#DejaVuSans-Oblique-27" transform="translate(68.408203 -14.218701) scale(0.7)"/>
      <use xlink:href="#DejaVuSans-Oblique-36" transform="translate(122.30957 -14.218701) scale(0.7)"/>
      <use xlink:href="#DejaVuSans-3" transform="translate(169.477539 0.78125)"/>
      <use xlink:href="#DejaVuSans-20" transform="translate(201.264648 0.78125)"/>
      <use xlink:href="#DejaVuSans-3" transform="translate(285.053711 0.78125)"/>
      <use xlink:href="#DejaVuSans-14" transform="translate(316.84082 0.78125)"/>
      <use xlink:href="#DejaVuSans-11" transform="translate(380.463867 0.78125)"/>
      <use xlink:href="#DejaVuSans-15" transform="translate(412.250977 0.78125)"/>
      <use xlink:href="#DejaVuSans-3" transform="translate(475.874023 0.78125)"/>
      <use xlink:href="#DejaVuSans-39" transform="translate(507.661133 0.78125)"/>
     </g>
    </g>
   </g>
  </g>
  <g id="axes_2">
   <g id="matplotlib.axis_3">
    <g id="ytick_76">
     <g id="line2d_105">
      <defs>
       <path id="m07e460bfdb" d="M 0 0 
L 3.5 0 
" style="stroke: #52514e; stroke-width: 0.8"/>
      </defs>
      <g>
       <use xlink:href="#m07e460bfdb" x="405.472109" y="210.894281" style="fill: #52514e; stroke: #52514e; stroke-width: 0.8"/>
      </g>
     </g>
     <g id="text_22">
      <!-- 0 -->
      <g style="fill: #0b0b0b" transform="translate(412.472109 214.313227) scale(0.09 -0.09)">
       <use xlink:href="#DejaVuSans-13"/>
      </g>
     </g>
    </g>
    <g id="ytick_77">
     <g id="line2d_106">
      <g>
       <use xlink:href="#m07e460bfdb" x="405.472109" y="166.586975" style="fill: #52514e; stroke: #52514e; stroke-width: 0.8"/>
      </g>
     </g>
     <g id="text_23">
      <!-- 10 -->
      <g style="fill: #0b0b0b" transform="translate(412.472109 170.00592) scale(0.09 -0.09)">
       <use xlink:href="#DejaVuSans-14"/>
       <use xlink:href="#DejaVuSans-13" transform="translate(63.625 0)"/>
      </g>
     </g>
    </g>
    <g id="ytick_78">
     <g id="line2d_107">
      <g>
       <use xlink:href="#m07e460bfdb" x="405.472109" y="122.279668" style="fill: #52514e; stroke: #52514e; stroke-width: 0.8"/>
      </g>
     </g>
     <g id="text_24">
      <!-- 20 -->
      <g style="fill: #0b0b0b" transform="translate(412.472109 125.698613) scale(0.09 -0.09)">
       <use xlink:href="#DejaVuSans-15"/>
       <use xlink:href="#DejaVuSans-13" transform="translate(63.625 0)"/>
      </g>
     </g>
    </g>
    <g id="ytick_79">
     <g id="line2d_108">
      <g>
       <use xlink:href="#m07e460bfdb" x="405.472109" y="77.972361" style="fill: #52514e; stroke: #52514e; stroke-width: 0.8"/>
      </g>
     </g>
     <g id="text_25">
      <!-- 30 -->
      <g style="fill: #0b0b0b" transform="translate(412.472109 81.391306) scale(0.09 -0.09)">
       <use xlink:href="#DejaVuSans-16"/>
       <use xlink:href="#DejaVuSans-13" transform="translate(63.625 0)"/>
      </g>
     </g>
    </g>
    <g id="ytick_80">
     <g id="line2d_109">
      <g>
       <use xlink:href="#m07e460bfdb" x="405.472109" y="33.665054" style="fill: #52514e; stroke: #52514e; stroke-width: 0.8"/>
      </g>
     </g>
     <g id="text_26">
      <!-- 40 -->
      <g style="fill: #0b0b0b" transform="translate(412.472109 37.083999) scale(0.09 -0.09)">
       <use xlink:href="#DejaVuSans-17"/>
       <use xlink:href="#DejaVuSans-13" transform="translate(63.625 0)"/>
      </g>
     </g>
    </g>
    <g id="text_27">
     <!-- $I_D$ (mA), linear scale (dashed) -->
     <g style="fill: #0b0b0b" transform="translate(434.764609 177.387281) rotate(-90) scale(0.09 -0.09)">
      <defs>
       <path id="DejaVuSans-50" d="M 3328 2828 
Q 3544 3216 3844 3400 
Q 4144 3584 4550 3584 
Q 5097 3584 5394 3201 
Q 5691 2819 5691 2113 
L 5691 0 
L 5113 0 
L 5113 2094 
Q 5113 2597 4934 2840 
Q 4756 3084 4391 3084 
Q 3944 3084 3684 2787 
Q 3425 2491 3425 1978 
L 3425 0 
L 2847 0 
L 2847 2094 
Q 2847 2600 2669 2842 
Q 2491 3084 2119 3084 
Q 1678 3084 1418 2786 
Q 1159 2488 1159 1978 
L 1159 0 
L 581 0 
L 581 3500 
L 1159 3500 
L 1159 2956 
Q 1356 3278 1631 3431 
Q 1906 3584 2284 3584 
Q 2666 3584 2933 3390 
Q 3200 3197 3328 2828 
z
" transform="scale(0.015625)"/>
       <path id="DejaVuSans-51" d="M 3513 2113 
L 3513 0 
L 2938 0 
L 2938 2094 
Q 2938 2591 2744 2837 
Q 2550 3084 2163 3084 
Q 1697 3084 1428 2787 
Q 1159 2491 1159 1978 
L 1159 0 
L 581 0 
L 581 3500 
L 1159 3500 
L 1159 2956 
Q 1366 3272 1645 3428 
Q 1925 3584 2291 3584 
Q 2894 3584 3203 3211 
Q 3513 2838 3513 2113 
z
" transform="scale(0.015625)"/>
       <path id="DejaVuSans-55" d="M 2631 2963 
Q 2534 3019 2420 3045 
Q 2306 3072 2169 3072 
Q 1681 3072 1420 2755 
Q 1159 2438 1159 1844 
L 1159 0 
L 581 0 
L 581 3500 
L 1159 3500 
L 1159 2956 
Q 1341 3275 1631 3429 
Q 1922 3584 2338 3584 
Q 2397 3584 2469 3576 
Q 2541 3569 2628 3553 
L 2631 2963 
z
" transform="scale(0.015625)"/>
       <path id="DejaVuSans-4b" d="M 3513 2113 
L 3513 0 
L 2938 0 
L 2938 2094 
Q 2938 2591 2744 2837 
Q 2550 3084 2163 3084 
Q 1697 3084 1428 2787 
Q 1159 2491 1159 1978 
L 1159 0 
L 581 0 
L 581 4863 
L 1159 4863 
L 1159 2956 
Q 1366 3272 1645 3428 
Q 1925 3584 2291 3584 
Q 2894 3584 3203 3211 
Q 3513 2838 3513 2113 
z
" transform="scale(0.015625)"/>
      </defs>
      <use xlink:href="#DejaVuSans-Oblique-2c" transform="translate(0 0.015625)"/>
      <use xlink:href="#DejaVuSans-Oblique-27" transform="translate(29.492188 -14.984326) scale(0.7)"/>
      <use xlink:href="#DejaVuSans-3" transform="translate(86.12793 0.015625)"/>
      <use xlink:href="#DejaVuSans-b" transform="translate(117.915039 0.015625)"/>
      <use xlink:href="#DejaVuSans-50" transform="translate(156.928711 0.015625)"/>
      <use xlink:href="#DejaVuSans-24" transform="translate(254.34082 0.015625)"/>
      <use xlink:href="#DejaVuSans-c" transform="translate(322.749023 0.015625)"/>
      <use xlink:href="#DejaVuSans-f" transform="translate(361.762695 0.015625)"/>
      <use xlink:href="#DejaVuSans-3" transform="translate(393.549805 0.015625)"/>
      <use xlink:href="#DejaVuSans-4f" transform="translate(425.336914 0.015625)"/>
      <use xlink:href="#DejaVuSans-4c" transform="translate(453.120117 0.015625)"/>
      <use xlink:href="#DejaVuSans-51" transform="translate(480.90332 0.015625)"/>
      <use xlink:href="#DejaVuSans-48" transform="translate(544.282227 0.015625)"/>
      <use xlink:href="#DejaVuSans-44" transform="translate(605.805664 0.015625)"/>
      <use xlink:href="#DejaVuSans-55" transform="translate(667.084961 0.015625)"/>
      <use xlink:href="#DejaVuSans-3" transform="translate(708.198242 0.015625)"/>
      <use xlink:href="#DejaVuSans-56" transform="translate(739.985352 0.015625)"/>
      <use xlink:href="#DejaVuSans-46" transform="translate(792.084961 0.015625)"/>
      <use xlink:href="#DejaVuSans-44" transform="translate(847.06543 0.015625)"/>
      <use xlink:href="#DejaVuSans-4f" transform="translate(908.344727 0.015625)"/>
      <use xlink:href="#DejaVuSans-48" transform="translate(936.12793 0.015625)"/>
      <use xlink:href="#DejaVuSans-3" transform="translate(997.651367 0.015625)"/>
      <use xlink:href="#DejaVuSans-b" transform="translate(1029.438477 0.015625)"/>
      <use xlink:href="#DejaVuSans-47" transform="translate(1068.452148 0.015625)"/>
      <use xlink:href="#DejaVuSans-44" transform="translate(1131.928711 0.015625)"/>
      <use xlink:href="#DejaVuSans-56" transform="translate(1193.208008 0.015625)"/>
      <use xlink:href="#DejaVuSans-4b" transform="translate(1245.307617 0.015625)"/>
      <use xlink:href="#DejaVuSans-48" transform="translate(1308.686523 0.015625)"/>
      <use xlink:href="#DejaVuSans-47" transform="translate(1370.209961 0.015625)"/>
      <use xlink:href="#DejaVuSans-c" transform="translate(1433.686523 0.015625)"/>
     </g>
    </g>
   </g>
   <g id="line2d_110">
    <path d="M 48.352109 210.894274 
L 155.190509 210.783665 
L 168.880109 210.542883 
L 178.700909 210.153763 
L 187.033709 209.607091 
L 195.366509 208.832004 
L 203.996909 207.800799 
L 214.115309 206.35591 
L 227.209709 204.241781 
L 250.124909 200.272149 
L 282.265709 194.754839 
L 304.883309 191.105161 
L 326.608109 187.824362 
L 348.630509 184.726116 
L 371.248109 181.772542 
L 394.460909 178.965618 
L 405.472109 177.70828 
L 405.472109 177.70828 
" clip-path="url(#p9ca663f37f)" style="fill: none; stroke-dasharray: 5.92,2.56; stroke-dashoffset: 0; stroke: #86b6ef; stroke-width: 1.6"/>
   </g>
   <g id="line2d_111">
    <path d="M 48.352109 210.894267 
L 146.857709 210.785797 
L 160.249709 210.546936 
L 169.177709 210.178898 
L 176.617709 209.651089 
L 183.164909 208.958347 
L 189.116909 208.101967 
L 194.771309 207.060747 
L 200.128109 205.851986 
L 205.484909 204.415767 
L 210.841709 202.746274 
L 216.198509 200.84205 
L 221.555309 198.705093 
L 227.209709 196.202007 
L 232.864109 193.452292 
L 238.816109 190.301445 
L 244.768109 186.899242 
L 251.017709 183.070122 
L 257.564909 178.792518 
L 264.409709 174.047768 
L 271.552109 168.820347 
L 278.992109 163.098032 
L 287.027309 156.627285 
L 295.360109 149.627771 
L 304.288109 141.835347 
L 313.811309 133.227525 
L 324.227309 123.508018 
L 335.536109 112.647889 
L 348.332909 100.039211 
L 362.915309 85.343765 
L 380.176109 67.618871 
L 403.388909 43.438446 
L 405.472109 41.258 
L 405.472109 41.258 
" clip-path="url(#p9ca663f37f)" style="fill: none; stroke-dasharray: 5.92,2.56; stroke-dashoffset: 0; stroke: #2a78d6; stroke-width: 1.6"/>
   </g>
   <g id="line2d_112">
    <path d="M 48.352109 210.894255 
L 140.310509 210.783623 
L 153.702509 210.538719 
L 162.630509 210.160343 
L 169.772909 209.643363 
L 176.022509 208.976798 
L 181.676909 208.162718 
L 187.033709 207.178905 
L 192.390509 205.966572 
L 197.449709 204.596701 
L 202.508909 202.998579 
L 207.568109 201.167295 
L 212.627309 199.10221 
L 217.686509 196.806158 
L 223.043309 194.129323 
L 228.400109 191.208147 
L 234.054509 187.8706 
L 240.006509 184.089216 
L 245.958509 180.047967 
L 252.208109 175.542117 
L 258.755309 170.552593 
L 265.600109 165.063585 
L 273.040109 158.806999 
L 280.777709 152.008362 
L 289.110509 144.387466 
L 298.038509 135.916192 
L 307.561709 126.574819 
L 317.977709 116.047858 
L 329.584109 103.998924 
L 342.678509 90.080505 
L 358.153709 73.295873 
L 377.795309 51.642078 
L 405.472109 20.814281 
L 405.472109 20.814281 
" clip-path="url(#p9ca663f37f)" style="fill: none; stroke-dasharray: 5.92,2.56; stroke-dashoffset: 0; stroke: #0d366b; stroke-width: 1.6"/>
   </g>
   <g id="patch_7">
    <path d="M 48.352109 210.894281 
L 48.352109 11.310281 
" style="fill: none; stroke: #52514e; stroke-width: 0.8; stroke-linejoin: miter; stroke-linecap: square"/>
   </g>
   <g id="patch_8">
    <path d="M 405.472109 210.894281 
L 405.472109 11.310281 
" style="fill: none; stroke: #52514e; stroke-width: 0.8; stroke-linejoin: miter; stroke-linecap: square"/>
   </g>
   <g id="patch_9">
    <path d="M 48.352109 210.894281 
L 405.472109 210.894281 
" style="fill: none; stroke: #52514e; stroke-width: 0.8; stroke-linejoin: miter; stroke-linecap: square"/>
   </g>
   <g id="patch_10">
    <path d="M 48.352109 11.310281 
L 405.472109 11.310281 
" style="fill: none; stroke: #52514e; stroke-width: 0.8; stroke-linejoin: miter; stroke-linecap: square"/>
   </g>
  </g>
 </g>
 <defs>
  <clipPath id="p9ca663f37f">
   <rect x="48.352109" y="11.310281" width="357.12" height="199.584"/>
  </clipPath>
 </defs>
</svg>
